<?xml version="1.0" standalone="no"?>
<!DOCTYPE svg PUBLIC "-//W3C//DTD SVG 1.1//EN"
  "http://www.w3.org/Graphics/SVG/1.1/DTD/svg11.dtd">
<svg version="1.1" xmlns="http://www.w3.org/2000/svg" xmlns:xlink="http://www.w3.org/1999/xlink" width="1280" height="720" viewBox="-1040.8888888888887 -32 1889.7777777777776 1063" id="ccdiagram"><filter id="grayscale"><feColorMatrix type="saturate" values="0"></feColorMatrix></filter><filter id="highlight"><feColorMatrix type="matrix" color-interpolation-filters="sRGB" values="0.20338 0 0 0 0 0 0.58474 0 0 0 0 0 0.97033 0 0 0 0 0 1 0"></feColorMatrix></filter><defs><style type="text/css">@import url('https://fonts.googleapis.com/css?family=Open+Sans:400,700|Inconsolata:400');</style></defs><g><rect x="-1040.8888888888887" y="-32" width="1889.7777777777776" height="1063" fill="none" id="interactionLayer"></rect><g pointer-events="auto"></g><g pointer-events="auto"><g opacity="1"><g id="7f18b6ba-5b05-4f0e-9ecc-3056f1bfa54f"><g><polygon points="-16 213, 368 435, 48 620, -336 398" fill="#ececed"></polygon><svg x="-46" y="106" overflow="visible"><g fill="#4286c5" fill-opacity="1" stroke="none" transform="scale(1.25) matrix(0.707 0.409 -0.707 0.409 0 0)"><path stroke="none" d="M144 93.924l-14.834 8.565v19.577l16.954 9.789 14.835-8.565-6.358-3.67-8.477 4.893-10.597-6.117V106.16l8.478-4.894z"></path><path stroke="none" d="M148.24 93.924v7.342l8.476 4.894v9.788l6.358 3.671v-17.13z"></path></g></svg><polygon points="-336 410, 48 632, 48 620, -336 398" fill="#d2d2d4" stroke="#83838a"></polygon><polygon points="48 632, 368 447, 368 435, 48 620" fill="#b8b8bb" stroke="#83838a"></polygon><polygon points="-336 416, 48 638, 48 632, -336 410" fill="#326ca2" stroke="#326ca2"></polygon><polygon points="48 638, 368 453, 368 447, 48 632" fill="#26527b" stroke="#26527b"></polygon><polygon points="-16 213, -336 398, -336 416, 48 638, 368 453, 368 435" fill="none" stroke="#000000" stroke-width="2"></polygon><svg x="-6" y="255" overflow="visible"><clipPath id="clip-7f18b6ba-5b05-4f0e-9ecc-3056f1bfa54f"><polygon points="-10 -43, 374 179, 54 364, -330 142"></polygon></clipPath><g clip-path="url(#clip-7f18b6ba-5b05-4f0e-9ecc-3056f1bfa54f)" font-family="Open Sans" font-size="32pt" fill="#000000" font-weight="bold"><text stroke="#ffffff" stroke-width="4" transform="matrix(0.707 0.409 -0.707 0.409 0 0)"><tspan>Vulpix Cluster</tspan></text><text transform="matrix(0.707 0.409 -0.707 0.409 0 0)"><tspan>Vulpix Cluster</tspan></text></g></svg></g></g></g></g><g pointer-events="auto"></g><g></g><g pointer-events="auto"></g><g></g><g pointer-events="auto"></g><g pointer-events="auto"><g opacity="1"><g id="cb86b317-bb5d-46f3-b27e-2b53de9ba147"><g><polygon points="-16 287, 240 435, 48 546, -208 398" fill="#000000" opacity="0.5"></polygon><polygon points="-16 268, 240 416, 48 527, -208 379" fill="#fff"></polygon><polygon points="-208 389, 48 537, 48 527, -208 379" fill="#326ca2" stroke="#999"></polygon><polygon points="48 537, 240 426, 240 416, 48 527" fill="#26527b" stroke="#999"></polygon><polygon points="-16 268, -208 379, -208 389, 48 537, 240 426, 240 416" fill="none" stroke="#000000" stroke-width="2"></polygon><svg x="-35" y="287" overflow="visible"><clipPath id="clip-cb86b317-bb5d-46f3-b27e-2b53de9ba147"><polygon points="19 -18, 269 126, 77 237, -173 93"></polygon></clipPath><g clip-path="url(#clip-cb86b317-bb5d-46f3-b27e-2b53de9ba147)" font-family="Open Sans" font-size="25pt" fill="#000000" font-weight="bold"><text stroke="#ffffff" stroke-width="4" transform="matrix(0.707 0.409 -0.707 0.409 0 0)"><tspan>Vulpix Service</tspan></text><text transform="matrix(0.707 0.409 -0.707 0.409 0 0)"><tspan>Vulpix Service</tspan></text></g></svg></g></g></g></g><g pointer-events="none"></g><g pointer-events="auto"><g id="9234418a-e141-4b47-8a8a-40b7d5fc87b0-061a6d48-3f44-48f3-9c00-18fe8285060f"><g cursor="cell"><line x1="426" y1="383" x2="352" y2="426" stroke="red" stroke-width="8" opacity="0"></line><line x1="426" y1="383" x2="352" y2="426" stroke="#000000" stroke-width="2" stroke-linecap="round"></line><polygon points="435 377, 410 383, 423 385, 426 392, 435 377" stroke-linejoin="round" fill="#000000" stroke="#000000" stroke-width="1"></polygon></g></g><g id="b64cc6de-ef76-44c1-8815-4abec0ad08af-7f18b6ba-5b05-4f0e-9ecc-3056f1bfa54f"><g cursor="cell"><line x1="-239" y1="582" x2="-154" y2="533" stroke="red" stroke-width="8" opacity="0"></line><line x1="-239" y1="582" x2="-154" y2="533" stroke="#000000" stroke-width="2" stroke-linecap="round"></line><polygon points="-144 527, -170 533, -156 534, -153 542, -144 527" stroke-linejoin="round" fill="#000000" stroke="#000000" stroke-width="1"></polygon></g></g><g id="8b882820-be99-4988-8b37-31a7257ac321-b783d71a-7f8e-441e-bded-1e781603ca17"><g cursor="cell"><line x1="-489" y1="753" x2="-387" y2="813" stroke="red" stroke-width="8" opacity="0"></line><line x1="-489" y1="753" x2="-387" y2="813" stroke="#000000" stroke-width="2" stroke-linecap="round"></line><polygon points="-377 818, -386 803, -389 811, -402 813, -377 818" stroke-linejoin="round" fill="#000000" stroke="#000000" stroke-width="1"></polygon></g></g><g id="ef336468-cb2d-4691-b9a9-df3f98781012-b64cc6de-ef76-44c1-8815-4abec0ad08af"><g cursor="cell"><line x1="-480" y1="500" x2="-346" y2="577" stroke="red" stroke-width="8" opacity="0"></line><line x1="-480" y1="500" x2="-346" y2="577" stroke="#000000" stroke-width="2" stroke-linecap="round"></line><polygon points="-336 583, -345 568, -348 576, -362 577, -336 583" stroke-linejoin="round" fill="#000000" stroke="#000000" stroke-width="1"></polygon></g></g><g id="85b53f2b-b5a4-4c95-aaf3-1a938ab907bb-7bce6ef2-1a3f-43a3-ae56-a948b948a6dc"><g cursor="cell"><line x1="115" y1="192" x2="42" y2="235" stroke="red" stroke-width="8" opacity="0"></line><line x1="115" y1="192" x2="42" y2="235" stroke="#000000" stroke-width="2" stroke-linecap="round"></line><polygon points="32 241, 58 235, 44 233, 41 226, 32 241" stroke-linejoin="round" fill="#000000" stroke="#000000" stroke-width="1"></polygon></g></g><g id="4b538faa-4414-42bc-9696-e8796d17c0f4-7f18b6ba-5b05-4f0e-9ecc-3056f1bfa54f"><g cursor="cell"><line x1="264" y1="291" x2="202" y2="327" stroke="red" stroke-width="8" opacity="0"></line><line x1="264" y1="291" x2="202" y2="327" stroke="#000000" stroke-width="2" stroke-linecap="round"></line><polygon points="192 333, 218 328, 204 326, 201 318, 192 333" stroke-linejoin="round" fill="#000000" stroke="#000000" stroke-width="1"></polygon></g></g><g id="8b882820-be99-4988-8b37-31a7257ac321-4042a9cb-712c-4f24-ac38-4acb7b68165b"><g cursor="cell"><line x1="-552" y1="717" x2="-613" y2="576" stroke="red" stroke-width="8" opacity="0"></line><line x1="-552" y1="717" x2="-613" y2="576" stroke="#000000" stroke-width="2" stroke-linecap="round"></line><polygon points="-616 569, -621 584, -612 579, -599 581, -616 569" stroke-linejoin="round" fill="#000000" stroke="#000000" stroke-width="1"></polygon></g></g><g id="4042a9cb-712c-4f24-ac38-4acb7b68165b-ef336468-cb2d-4691-b9a9-df3f98781012"><g cursor="cell"><line x1="-616" y1="541" x2="-543" y2="499" stroke="red" stroke-width="8" opacity="0"></line><line x1="-616" y1="541" x2="-543" y2="499" stroke="#000000" stroke-width="2" stroke-linecap="round"></line><polygon points="-533 493, -559 499, -546 500, -542 508, -533 493" stroke-linejoin="round" fill="#000000" stroke="#000000" stroke-width="1"></polygon></g></g></g><g pointer-events="auto"><g opacity="1"><g id="85b53f2b-b5a4-4c95-aaf3-1a938ab907bb" transform="translate(0 0)"><svg x="77" y="83" width="100.625" height="115.695" viewBox="0 0 26.624 30.611"><path fill="#4286c5" d="M13.312.306v15l12.99-7.5z" fill-rule="evenodd"></path><path fill="#26527b" d="m.321 7.806 12.99 7.5v-15z" fill-rule="evenodd"></path><path fill="none" stroke="#020406" d="M13.312.306v15" stroke-width=".265"></path><path fill="#26527b" d="m13.312 15.306 12.99-7.5-6.495 18.75-6.495 3.75z" fill-rule="evenodd"></path><path fill="#326ca2" d="m.321 7.806 12.99 7.5v15l-6.494-3.75z" fill-rule="evenodd"></path><path fill="none" stroke="#0e1e2d" d="m.321 7.806 12.99 7.5 12.991-7.5-12.99 7.5v15" stroke-width=".265"></path><path fill="none" stroke="#000000" d="m13.312.306-12.99 7.5 6.495 18.75 6.495 3.75 6.495-3.75 6.495-18.75z" stroke-width=".529"></path></svg></g></g><g opacity="1"><g id="9234418a-e141-4b47-8a8a-40b7d5fc87b0" transform="translate(0 0)"><svg x="397" y="268" width="100.625" height="115.695" viewBox="0 0 26.624 30.611"><path fill="#4286c5" d="M13.312.306v15l12.99-7.5z" fill-rule="evenodd"></path><path fill="#26527b" d="m.321 7.806 12.99 7.5v-15z" fill-rule="evenodd"></path><path fill="none" stroke="#020406" d="M13.312.306v15" stroke-width=".265"></path><path fill="#26527b" d="m13.312 15.306 12.99-7.5-6.495 18.75-6.495 3.75z" fill-rule="evenodd"></path><path fill="#326ca2" d="m.321 7.806 12.99 7.5v15l-6.494-3.75z" fill-rule="evenodd"></path><path fill="none" stroke="#0e1e2d" d="m.321 7.806 12.99 7.5 12.991-7.5-12.99 7.5v15" stroke-width=".265"></path><path fill="none" stroke="#000000" d="m13.312.306-12.99 7.5 6.495 18.75 6.495 3.75 6.495-3.75 6.495-18.75z" stroke-width=".529"></path></svg></g></g><g opacity="1"><g id="ad8c6e23-77a9-4a8a-9c56-ce6d9fcbc1a2" transform="translate(0 0)"><svg x="-69" y="329" width="106.128" height="80.616" viewBox="0 0 28.08 21.33"><path fill="#d2d2d4" stroke="#83838a" d="M.265 10.053v4.894l10.596 6.118v-4.894zm10.596 6.118h6.358v4.894h-6.358z" stroke-width=".265"></path><path fill="#b8b8bb" stroke="#83838a" d="m17.219 21.065 10.596-6.118v-4.894l-10.596 6.118z" stroke-width=".265"></path><path fill="#ececed" stroke="#83838a" d="M27.815 10.053v-3.67L17.219.265h-6.358L.264 6.382v3.671l10.597 6.118h6.358z" stroke-width=".265"></path><path fill="none" stroke="#000000" d="m.265 14.947 10.596 6.118h6.358l10.596-6.118V6.383L17.219.265h-6.358L.264 6.383Z" stroke-width=".529"></path><g fill="#4286c5"><path d="m11.211 2.617.666.385-6.87 3.967-.667-.385zm1.872 1.081.666.385-6.871 3.966-.666-.384zm8.12 4.688.666.384-6.871 3.967-.666-.385zm1.871 1.08.666.385-6.87 3.967-.667-.385zM13.48 10.8 9.57 8.543a.796.46 0 0 1 0-.65l3.91-2.258a.796.46 0 0 1 1.126 0l3.91 2.258a.796.46 0 0 1 0 .65l-3.91 2.257a.796.46 0 0 1-1.126 0zm-3.14-2.582 3.703 2.138 3.704-2.138-3.704-2.139z"></path><path d="m14.958 5.142.666.385-.936.54-.666-.385zm1.249.721.666.385-.936.54-.666-.385zm1.249.721.666.385-.936.54-.666-.385zm1.249.721.666.385-.936.54-.666-.385zm-9.053.9.667.385-.936.54-.667-.385zm1.25.721.665.385-.935.54-.667-.385zm1.248.721.666.385-.936.54-.666-.385zm1.25.721.665.385-.936.54-.666-.385z"></path><path d="m13.126 5.142.936.54-.666.385-.936-.54zm-1.249.721.936.54-.666.385-.936-.54zm-1.249.721.936.54-.666.385-.936-.54zm-1.249.721.936.54-.666.385-.936-.54zm9.053.9.935.54-.666.385-.936-.54zm-1.25.721.936.54-.666.385-.936-.54zm-1.248.721.936.54-.667.385-.936-.54zm-1.25.721.937.54-.667.385-.935-.54z"></path></g></svg></g></g><g opacity="1"><g id="0f22db49-2ffc-413b-b185-756f92be227b" transform="translate(0 0)"><svg x="-5" y="366" width="106.128" height="80.616" viewBox="0 0 28.08 21.33"><path fill="#d2d2d4" stroke="#83838a" d="M.265 10.053v4.894l10.596 6.118v-4.894zm10.596 6.118h6.358v4.894h-6.358z" stroke-width=".265"></path><path fill="#b8b8bb" stroke="#83838a" d="m17.219 21.065 10.596-6.118v-4.894l-10.596 6.118z" stroke-width=".265"></path><path fill="#ececed" stroke="#83838a" d="M27.815 10.053v-3.67L17.219.265h-6.358L.264 6.382v3.671l10.597 6.118h6.358z" stroke-width=".265"></path><path fill="none" stroke="#000000" d="m.265 14.947 10.596 6.118h6.358l10.596-6.118V6.383L17.219.265h-6.358L.264 6.383Z" stroke-width=".529"></path><g fill="#4286c5"><path d="m11.211 2.617.666.385-6.87 3.967-.667-.385zm1.872 1.081.666.385-6.871 3.966-.666-.384zm8.12 4.688.666.384-6.871 3.967-.666-.385zm1.871 1.08.666.385-6.87 3.967-.667-.385zM13.48 10.8 9.57 8.543a.796.46 0 0 1 0-.65l3.91-2.258a.796.46 0 0 1 1.126 0l3.91 2.258a.796.46 0 0 1 0 .65l-3.91 2.257a.796.46 0 0 1-1.126 0zm-3.14-2.582 3.703 2.138 3.704-2.138-3.704-2.139z"></path><path d="m14.958 5.142.666.385-.936.54-.666-.385zm1.249.721.666.385-.936.54-.666-.385zm1.249.721.666.385-.936.54-.666-.385zm1.249.721.666.385-.936.54-.666-.385zm-9.053.9.667.385-.936.54-.667-.385zm1.25.721.665.385-.935.54-.667-.385zm1.248.721.666.385-.936.54-.666-.385zm1.25.721.665.385-.936.54-.666-.385z"></path><path d="m13.126 5.142.936.54-.666.385-.936-.54zm-1.249.721.936.54-.666.385-.936-.54zm-1.249.721.936.54-.666.385-.936-.54zm-1.249.721.936.54-.666.385-.936-.54zm9.053.9.935.54-.666.385-.936-.54zm-1.25.721.936.54-.666.385-.936-.54zm-1.248.721.936.54-.667.385-.936-.54zm-1.25.721.937.54-.667.385-.935-.54z"></path></g></svg></g></g><g opacity="1"><g id="ef336468-cb2d-4691-b9a9-df3f98781012" transform="translate(0 0)"><svg x="-560" y="361" width="93" height="148.142" viewBox="0 0 24.606 39.196"><g transform="translate(-90.671 -137.288)"><path fill="#ececed" d="m91.985 141.821 14.632 8.448 7.316-4.224-14.632-8.447z" fill-rule="evenodd"></path><path fill="#d2d2d4" d="m91.985 165.958-1.045 1.81v-1.207z" fill-rule="evenodd"></path><path fill="#d2d2d4" d="m91.985 165.958 14.632 8.447-1.046 1.81-14.566-8.56zm14.632 8.447-1.046 1.81h2.09z" fill-rule="evenodd"></path><path fill="#d2d2d4" d="M91.985 141.821v24.137l14.632 8.447V150.27z" fill-rule="evenodd"></path><path fill="#b8b8bb" d="m106.617 174.405 1.045 1.81 7.316-4.223v-1.207l-1.045-.603z" fill-rule="evenodd"></path><path fill="#b8b8bb" d="m106.617 150.27 7.316-4.225v24.137l-7.316 4.223z" fill-rule="evenodd"></path><path fill="none" stroke="#83838a" d="m113.933 170.182-7.316 4.223-14.632-8.447-1.045 1.81m1.046-25.947 14.631 8.448 7.316-4.224m-7.316 4.224v24.136m-1.045 1.81 1.045-1.81 1.045 1.81m6.271-6.033 1.045 1.81" stroke-width=".268"></path><path fill="none" stroke="#000000" d="M90.94 167.768v-1.207l1.045-.603V141.82l7.316-4.223 14.632 8.447v24.137l1.045.603v1.207l-7.316 4.224h-2.09z" stroke-width=".529"></path><ellipse cx="141.009" cy="74.394" fill="#4286c5" rx="6.047" ry="4.714" transform="matrix(.19572 .98066 .96381 .26658 0 0)"></ellipse><ellipse cx="141.009" cy="74.394" fill="#ffffff" rx="5.037" ry="3.927" transform="matrix(.19572 .98066 .96381 .26658 0 0)"></ellipse><path fill="none" stroke="#4286c5" d="M99.03 153.24c-3.066 2.889-1.033 7.409.271 9.7" stroke-width=".52"></path><g transform="translate(374.17 163.896) scale(.26818)"><ellipse cx="272.14" cy="-1124.64" fill="#4286c5" rx="3.335" ry="2.648" transform="matrix(.19572 .98066 .96381 .26658 0 0)"></ellipse><ellipse cx="290.38" cy="-1128.297" fill="#4286c5" rx="3.687" ry="2.835" transform="matrix(.19572 .98066 .96381 .26658 0 0)"></ellipse><ellipse cx="290.282" cy="-1113.221" fill="#4286c5" rx="3.51" ry="2.717" transform="matrix(.19572 .98066 .96381 .26658 0 0)"></ellipse><path fill="none" stroke="#4286c5" d="M-1033.087-41.48c4.26 21.344 17.38 30.943 23.61 33.65" stroke-width="1.938"></path><path fill="none" stroke="#4286c5" d="M-1039.896-25.075c12.675 15.122 22.864 16.4 30.106 8.948" stroke-width="1.938"></path></g></g></svg></g></g><g opacity="1"><g id="b64cc6de-ef76-44c1-8815-4abec0ad08af" transform="translate(0 0)"><svg x="-336" y="546" width="97" height="94" fill-rule="evenodd" stroke-miterlimit="1"><path fill="#ececed" d="M0 18.6v18.6l32.333 18.6h32.334L97 37.2V18.6L64.667 0H32.333L0 18.6Z"></path><path fill="#b8b8bb" d="M64.667 55.8 97 37.2v37.2L64.667 93V55.8Z"></path><path fill="#d2d2d4" d="M32.333 55.8h32.334V93H32.333V55.8ZM0 37.2v37.2L32.333 93V55.8L0 37.2Z"></path><path fill="none" stroke="#83838a" d="M.955 37.877 32.333 55.8h32.334l31.378-17.923M32.333 55.8v36.211M64.667 55.8v36.574" stroke-width="1.04"></path><path fill="#000000" d="M97 18.6v55.8L64.667 93H32.333L0 74.4V18.6L32.333 0h32.334L97 18.6ZM32.865 1.989 1.989 19.751v53.498l30.876 17.762h31.27l30.876-17.762V19.751L64.135 1.989h-31.27Z"></path><path fill="#4286c5" d="M69.912 15.583c11.818 6.798 11.818 17.836 0 24.635-11.817 6.798-31.007 6.798-42.824 0-11.818-6.799-11.818-17.837 0-24.635 11.817-6.799 31.007-6.799 42.824 0Z"></path><path fill="#ffffff" d="M49.584 14.774c1.824 1.049 1.824 2.753 0 3.802-1.824 1.05-4.786 1.05-6.61 0-1.824-1.049-1.824-2.753 0-3.802 1.824-1.05 4.786-1.05 6.61 0Zm10.867 6.251c1.825 1.049 1.825 2.753 0 3.803-1.824 1.049-4.786 1.049-6.61 0-1.824-1.05-1.824-2.754 0-3.803s4.786-1.049 6.61 0Zm10.868 6.251c1.824 1.05 1.824 2.754 0 3.803-1.825 1.049-4.787 1.049-6.611 0-1.824-1.049-1.824-2.753 0-3.803 1.824-1.049 4.786-1.049 6.611 0Zm-32.822 6.378c1.824 1.05 1.824 2.754 0 3.803-1.825 1.05-4.787 1.05-6.611 0-1.824-1.049-1.824-2.753 0-3.803 1.824-1.049 4.786-1.049 6.611 0Z"></path><path fill="#ffffff" d="M47.458 15.878c.453.26.393.717-.133 1.02-.526.303-1.32.337-1.773.076-.452-.26-.392-.717.133-1.019.526-.303 1.321-.337 1.773-.077Z"></path><path fill="#4286c5" d="M48.111 15.621c1.012.582 1.012 1.526 0 2.108-1.011.582-2.653.582-3.664 0-1.012-.582-1.012-1.526 0-2.108 1.011-.582 2.653-.582 3.664 0Zm10.867 6.251c1.012.582 1.012 1.527 0 2.108-1.011.582-2.653.582-3.664 0-1.012-.581-1.012-1.526 0-2.108 1.011-.581 2.653-.581 3.664 0Zm10.868 6.252c1.011.581 1.011 1.526 0 2.108-1.012.582-2.654.582-3.665 0-1.011-.582-1.011-1.527 0-2.108 1.011-.582 2.653-.582 3.665 0Z"></path><path fill="#ffffff" d="M37.024 34.502c1.011.582 1.011 1.526 0 2.108-1.012.582-2.654.582-3.665 0-1.011-.582-1.011-1.526 0-2.108 1.011-.582 2.653-.582 3.665 0Zm15.277-9.33L37.719 33.56l.482.834 14.584-8.388-.484-.834Z"></path><path fill="#ffffff" stroke="#ffffff" d="m46.993 26.089 6.654-1.146-4.324 5.168c.189-1.691-.757-3.313-2.33-4.022Z" stroke-width=".36"></path><path fill="#ffffff" d="m43.488 19.937-6.057 13.797.886.387 6.056-13.798-.885-.386Z"></path><path fill="#ffffff" stroke="#ffffff" d="m39.76 23.812 4.676-4.854-.405 6.716c-.855-1.474-2.582-2.221-4.271-1.862Z" stroke-width=".36"></path><path fill="#ffffff" d="m61.953 30.061-23.985 3.483.14.955 23.985-3.486-.14-.952Z"></path><path fill="#ffffff" stroke="#ffffff" d="m56.68 28.957 6.608 1.387-5.936 3.209c.804-1.503.526-3.358-.672-4.596Z" stroke-width=".36"></path><path fill="#ffffff" stroke="#ffffff" d="m37.96 33.977 13.12-7.547m-13.207 7.497 5.792-13.134m-5.628 13.229 22.478-3.281" stroke-width="1.93"></path></svg></g></g><g opacity="1"><g id="8b882820-be99-4988-8b37-31a7257ac321" transform="translate(0 0)"><svg x="-552" y="663" width="63" height="95.068" viewBox="0 0 16.669 25.153"><path fill="#000" stroke="#000000" d="M16.668 22.903q0 1.64-.864 2.09-.865.452-2.296-.375L3.161 18.645q-1.432-.828-2.296-2.276Q.001 14.92 0 13.279q0-.724.042-1.39.042-.667.166-1.394.124-.728.313-1.303.19-.574.51-1.038.32-.464.733-.684.415-.219 1.013-.146.598.073 1.32.489.106.061.497.58.39.52.881 1.166.492.645 1.28 1.394.787.749 1.58 1.206.793.458 1.58.619.788.16 1.279.082.491-.078.882-.147.39-.068.497-.007.722.417 1.32 1.036.598.618 1.012 1.315.414.697.734 1.53.32.834.509 1.627.19.793.314 1.665.124.871.165 1.585.042.714.042 1.439zM12.88 8.509q0 2.173-1.331 2.942-1.332.77-3.214-.317T5.121 7.74Q3.789 5.434 3.789 3.26q0-2.173 1.332-2.942 1.332-.769 3.214.318 1.882 1.086 3.214 3.393 1.331 2.307 1.331 4.48z" stroke-width=".268"></path></svg></g></g><g opacity="1"><g id="b783d71a-7f8e-441e-bded-1e781603ca17" transform="translate(0 0)"><svg x="-377" y="789" width="81" height="93.28" viewBox="0 0 21.431 24.68"><path fill="#ececed" d="m.267 5.103 12.538 7.237 5.224-.603 3.134-9.048-4.18-2.412-15.67 1.81z" fill-rule="evenodd"></path><path fill="#d2d2d4" d="M.267 5.103v12.063l12.538 7.238V12.34zm12.538 7.237 5.224-.603v12.064l-5.224.603z" fill-rule="evenodd"></path><path fill="#b8b8bb" d="m18.029 11.737 3.134-9.048v12.064l-3.134 9.048z" fill-rule="evenodd"></path><path fill="none" stroke="#83838a" d="m.267 5.103 12.538 7.237 5.224-.603 3.134-9.048m-3.134 9.048v12.064M12.805 12.34v12.064" stroke-width=".265"></path><path fill="none" stroke="#000000" d="m.267 17.166 12.538 7.238 5.224-.603 3.134-9.048V2.689L16.983.277l-15.67 1.81L.268 5.102z" stroke-width=".529"></path><path fill="none" d="M16.852 3.319c-.637-.01-1.269-.156-1.755-.437-.487-.28-.739-.645-.757-1.013l-3.498.035c.111.43-.12.884-.694 1.215-.363.21-.812.34-1.281.392-.625.067-1.226.241-1.71.52-1.272.736-1.277 1.926-.013 2.664.734.423 1.146.957 1.248 1.509.956.059 1.88.297 2.613.72 1.279.73 3.34.727 4.613-.008.484-.28.785-.626.903-.987.088-.27.314-.53.678-.74.573-.33 1.359-.464 2.104-.4l.06-2.02c-.636-.01-1.268-.156-1.754-.437-.487-.28-.739-.645-.757-1.013z"></path><path fill="#4286c5" d="M17.277 4.302c.467.27 1.056.427 1.664.471l-.05 1.693c-.73-.014-1.467.14-2.023.462-.404.234-.655.522-.754.824-.107.33-.382.647-.823.902-1.161.672-3.041.674-4.208.007-.722-.417-1.618-.665-2.554-.749-.145-.541-.574-1.06-1.296-1.478-1.152-.675-1.147-1.762.014-2.433.44-.255.988-.414 1.559-.476.521-.057 1.02-.203 1.424-.436.556-.322.823-.748.8-1.17l2.926-.03c.076.352.348.693.815.963.473.274 1.07.432 1.687.474.073.356.346.702.819.976z" fill-rule="evenodd"></path><g><path fill="#ffffff" d="M177.61 45.984h2.004v.43h-1.537v.925q.112-.038.223-.056.11-.02.222-.02.632 0 1.001.346.369.346.369.938 0 .609-.38.948-.378.336-1.068.336-.238 0-.485-.04-.246-.041-.508-.122v-.513q.227.124.47.184.242.061.513.061.437 0 .692-.23.255-.23.255-.624t-.255-.624q-.255-.23-.692-.23-.205 0-.41.045-.202.046-.414.142zm4.837 1.739q.367.078.571.326.208.248.208.612 0 .558-.385.864-.384.306-1.091.306-.238 0-.49-.048-.25-.046-.519-.14v-.492q.212.124.465.187t.528.063q.48 0 .73-.19.254-.189.254-.55 0-.334-.235-.521-.233-.19-.65-.19h-.44v-.42h.46q.377 0 .576-.148.2-.152.2-.435 0-.29-.207-.445-.205-.157-.589-.157-.21 0-.45.046-.24.045-.528.142v-.455q.29-.081.543-.122.256-.04.48-.04.582 0 .92.265.34.263.34.713 0 .313-.18.53-.18.216-.51.299z" transform="scale(1.31486 .76054) rotate(45 142.927 -178.732)" font-family="Interstate" font-size="5.176"></path></g></svg></g></g></g><g pointer-events="auto"></g><g pointer-events="auto"><g opacity="1"><g id="4b538faa-4414-42bc-9696-e8796d17c0f4" transform="translate(0 0)"><svg x="288" y="278" overflow="visible"><g transform="scale(1.4131949617798671) matrix(0.707 0.409 -0.707 0.409 0 0)"><circle cx="0" cy="0" fill="transparent" r="31"></circle><svg width="48" height="48" x="-24" y="-24" style="fill: rgb(255, 255, 255);"><svg xmlns="http://www.w3.org/2000/svg" width="48" height="48" viewBox="0 0 48 48"><g fill="none" fill-rule="evenodd"><path fill="#067F68" d="M17.06 34.426a15.095 15.095 0 0 1-3.531-3.534l-8.8 8.8a2.5 2.5 0 0 0 0 3.533c.942.94 2.593.94 3.534 0l8.798-8.8ZM12.75 22.23c0 7.159 5.826 12.984 12.986 12.984 7.159 0 12.984-5.825 12.984-12.984 0-7.16-5.825-12.986-12.984-12.986-7.16 0-12.986 5.826-12.986 12.986Zm6.06 13.275-9.132 9.134a4.461 4.461 0 0 1-3.18 1.316 4.463 4.463 0 0 1-3.181-1.316 4.501 4.501 0 0 1 0-6.36l9.136-9.138a14.874 14.874 0 0 1-1.703-6.911c0-8.263 6.723-14.986 14.986-14.986 8.263 0 14.984 6.723 14.984 14.986 0 8.262-6.721 14.984-14.984 14.984-2.5 0-4.852-.623-6.925-1.71Zm-9.4-5.168c-1.263-2.51-1.904-5.237-1.904-8.107 0-3.127.805-6.21 2.327-8.915l-1.742-.981a20.214 20.214 0 0 0-2.585 9.896c0 3.14.732 6.255 2.117 9.006l1.787-.9Zm19.376-10.73a1.312 1.312 0 1 0-.001-2.624 1.312 1.312 0 0 0 0 2.624Zm-9.052-3.37v9.4l4.273-4.778c.258-.298.647-.45 1.057-.468.409.006.793.192 1.053.51l2.339 2.85 3.263-3.596v-3.918H19.733Zm11.985 11.985V23.13l-2.253 2.482c-.24.287-.626.465-1.035.465h-.01a1.383 1.383 0 0 1-1.062-.508l-2.335-2.847-4.918 5.5h11.613Zm-13.985.086V16.15c0-1.055.859-1.914 1.915-1.914h12.156c1.056 0 1.914.859 1.914 1.914v12.157a1.915 1.915 0 0 1-1.914 1.914H19.648a1.916 1.916 0 0 1-1.915-1.914Zm28.23-6.078c0 11.154-9.074 20.229-20.228 20.229-3.17 0-6.204-.712-9.022-2.115l.893-1.791a18.056 18.056 0 0 0 8.129 1.906c10.05 0 18.228-8.178 18.228-18.23C43.963 12.179 35.786 4 25.735 4c-2.525 0-4.967.509-7.257 1.509l-.801-1.833A20.019 20.019 0 0 1 25.735 2c11.154 0 20.228 9.075 20.228 20.23Z"></path></g></svg></svg></g></svg></g></g><g opacity="1"><g id="4042a9cb-712c-4f24-ac38-4acb7b68165b" transform="translate(0 0)"><svg x="-640" y="555" overflow="visible"><g transform="scale(1.4131949617798671) matrix(0.707 0.409 -0.707 0.409 0 0)"><circle cx="0" cy="0" fill="transparent" r="31"></circle><svg width="48" height="48" x="-24" y="-24" style="fill: rgb(255, 255, 255);"><svg xmlns="http://www.w3.org/2000/svg" width="48" height="48" viewBox="0 0 48 48"><g fill="none" fill-rule="evenodd"><path fill="#4D27AA" d="M31.9 33.508a1.608 1.608 0 0 1 0-3.214c.887 0 1.607.721 1.607 1.607s-.72 1.607-1.607 1.607Zm0-5.214a3.61 3.61 0 0 0-3.606 3.607 3.61 3.61 0 0 0 3.606 3.607 3.611 3.611 0 0 0 3.607-3.607 3.611 3.611 0 0 0-3.607-3.607Zm-16.118-4.191a1.609 1.609 0 0 1-1.607-1.607c0-.886.721-1.607 1.607-1.607.887 0 1.607.721 1.607 1.607s-.72 1.607-1.607 1.607Zm0-5.214a3.612 3.612 0 0 0-3.607 3.607 3.612 3.612 0 0 0 3.607 3.607 3.611 3.611 0 0 0 3.607-3.607 3.611 3.611 0 0 0-3.607-3.607Zm9.997-8.223c.887 0 1.607.721 1.607 1.607s-.72 1.607-1.607 1.607a1.609 1.609 0 0 1-1.607-1.607c0-.886.721-1.607 1.607-1.607Zm0 5.214a3.611 3.611 0 0 0 3.607-3.607 3.611 3.611 0 0 0-3.607-3.607 3.612 3.612 0 0 0-3.607 3.607 3.612 3.612 0 0 0 3.607 3.607Zm-6.926 3.236-1.678-1.089c1.346-2.074 2.501-3.449 3.989-4.746l1.314 1.507c-1.337 1.166-2.388 2.42-3.625 4.328Zm10.35 9.057-1.381 1.447c-2.576-2.458-5.147-4.073-8.09-5.083l.648-1.892c3.227 1.108 6.03 2.864 8.823 5.528Zm.071-13.053c2.48 3.782 3.875 7.932 4.148 12.338l-1.996.124c-.251-4.054-1.538-7.878-3.824-11.365l1.672-1.097ZM44 27.115l-2.428-.138a1.013 1.013 0 0 0-1.032.779 16.87 16.87 0 0 1-2.189 5.287 1 1 0 0 0 .18 1.279l1.813 1.618-4.404 4.405-.779-.873c.532-1.936-.409-3.883-.455-3.974l-1.791.891c.006.013.426.893.421 1.851a.968.968 0 0 0-.29.118 16.61 16.61 0 0 1-1.601.88c.351-.855.662-1.726.912-2.591l-1.92-.557a24.166 24.166 0 0 1-1.665 4.185c-.337.098-.674.198-1.018.275a1 1 0 0 0-.778 1.033L27.115 44h-6.231l.139-2.419a.999.999 0 0 0-.777-1.032 16.807 16.807 0 0 1-3.675-1.307c-1.083-2.778-1.706-5.758-1.706-8.239 0-1.109.194-2.035.419-3.106l.166-.809-1.963-.387-.161.785c-.238 1.132-.461 2.201-.461 3.517 0 2.211.446 4.77 1.24 7.263a.992.992 0 0 0-.43.268l-1.615 1.811-4.405-4.405 1.81-1.615a.998.998 0 0 0 .18-1.279 16.81 16.81 0 0 1-2.188-5.29 1.017 1.017 0 0 0-1.033-.779L4 27.115v-6.23l2.431.139a1.03 1.03 0 0 0 1.032-.778 16.822 16.822 0 0 1 2.193-5.28 1 1 0 0 0-.18-1.28l-1.821-1.625 4.405-4.406 1.624 1.82a1 1 0 0 0 1.279.18 16.893 16.893 0 0 1 3.515-1.671c.95.498 2.234 1.229 3.387 2.104l1.209-1.594a23.559 23.559 0 0 0-2.213-1.471.984.984 0 0 0 .162-.586L20.884 4h6.231l-.139 2.439a1 1 0 0 0 .778 1.032 16.83 16.83 0 0 1 2.363.733l-.363.137c-.276.106-.547.209-.808.304l.68 1.881c.272-.099.554-.206.842-.316.746-.285 1.511-.571 2.226-.745.112.066.228.124.339.194a1 1 0 0 0 1.279-.18l1.627-1.824 4.405 4.406-1.817 1.621c-.364.326-.44.867-.18 1.28a16.81 16.81 0 0 1 2.191 5.284c.107.476.571.802 1.032.778l2.43-.139v6.23Zm1.686-8.016a1.007 1.007 0 0 0-.743-.271l-2.66.152a18.79 18.79 0 0 0-1.807-4.356l1.99-1.776a.998.998 0 0 0 .041-1.453l-5.902-5.902a1.002 1.002 0 0 0-1.453.041L33.371 7.53a18.742 18.742 0 0 0-4.351-1.803l.151-2.67a.995.995 0 0 0-.271-.743.994.994 0 0 0-.727-.314h-8.347a.996.996 0 0 0-.727.314.995.995 0 0 0-.271.743l.151 2.667a18.775 18.775 0 0 0-4.353 1.803l-1.779-1.993a1 1 0 0 0-1.453-.041l-5.902 5.902a1 1 0 0 0 .041 1.453l1.994 1.779a18.765 18.765 0 0 0-1.808 4.353l-2.663-.152A.999.999 0 0 0 2 19.826v8.348a1 1 0 0 0 1.056.999l2.656-.152a18.78 18.78 0 0 0 1.804 4.363l-1.983 1.769a1 1 0 0 0-.041 1.453l5.902 5.902a.972.972 0 0 0 .735.292.991.991 0 0 0 .718-.334l1.77-1.982a18.834 18.834 0 0 0 4.362 1.809l-.151 2.65c-.016.274.082.544.27.744.19.2.452.313.728.313h8.347a1 1 0 0 0 .998-1.057l-.151-2.647a18.809 18.809 0 0 0 4.365-1.809l1.767 1.979a.993.993 0 0 0 .718.334.951.951 0 0 0 .735-.292l5.902-5.902a1 1 0 0 0-.041-1.453l-1.986-1.772a18.807 18.807 0 0 0 1.805-4.36l2.658.152A1.001 1.001 0 0 0 46 28.174v-8.348c0-.275-.114-.538-.314-.727Z"></path></g></svg></svg></g></svg></g></g></g><g pointer-events="auto"><g opacity="1"><g id="d0574516-8f28-4f04-817a-d74f17f4bbf1" transform="translate(0 0)"><svg x="-288" y="888" overflow="visible"><text stroke="#ffffff" stroke-width="4" font-family="Open Sans" y="36.5" font-size="25pt" fill="#f5b720" font-weight="bold" transform="matrix(0.707 0.409 -0.707 0.409 0 0)" xml:space="preserve"><tspan x="8" dy="0">Route 53</tspan></text><text font-family="Open Sans" y="36.5" font-size="25pt" fill="#f5b720" font-weight="bold" transform="matrix(0.707 0.409 -0.707 0.409 0 0)" xml:space="preserve"><tspan x="8" dy="0">Route 53</tspan></text></svg></g></g><g opacity="1"><g id="452feba2-07f9-479b-bd10-903cceb7abc1" transform="translate(0 0)"><svg x="-272" y="879" overflow="visible"><text stroke="#ffffff" stroke-width="4" font-family="Open Sans" y="25.099999999999998" font-size="15pt" fill="#f5b720" font-weight="bold" transform="matrix(0.707 0.409 -0.707 0.409 0 0)" xml:space="preserve"><tspan x="8" dy="0">Amazon</tspan></text><text font-family="Open Sans" y="25.099999999999998" font-size="15pt" fill="#f5b720" font-weight="bold" transform="matrix(0.707 0.409 -0.707 0.409 0 0)" xml:space="preserve"><tspan x="8" dy="0">Amazon</tspan></text></svg></g></g><g opacity="1"><g id="30e2d9a3-4b2f-467e-91bb-13535e3bd58c" transform="translate(0 0)"><svg x="-512" y="296" overflow="visible"><text stroke="#ffffff" stroke-width="4" font-family="Open Sans" y="36.5" font-size="25pt" fill="#ffc107" font-weight="bold" transform="matrix(0.707 0.409 -0.707 0.409 0 0)" xml:space="preserve"><tspan x="8" dy="0">CloudFront</tspan><tspan x="8" dy="1.1em">CDN</tspan></text><text font-family="Open Sans" y="36.5" font-size="25pt" fill="#ffc107" font-weight="bold" transform="matrix(0.707 0.409 -0.707 0.409 0 0)" xml:space="preserve"><tspan x="8" dy="0">CloudFront</tspan><tspan x="8" dy="1.1em">CDN</tspan></text></svg></g></g><g opacity="1"><g id="4ad23c32-d469-4bc1-b8de-66fa7b0f91e4" transform="translate(0 0)"><svg x="-784" y="509" overflow="visible"><text stroke="#ffffff" stroke-width="4" font-family="Open Sans" y="36.5" font-size="25pt" fill="#ffc107" font-weight="bold" transform="matrix(0.707 0.409 -0.707 0.409 0 0)" xml:space="preserve"><tspan x="8" dy="0">CloudFront</tspan><tspan x="8" dy="1.1em">Function</tspan></text><text font-family="Open Sans" y="36.5" font-size="25pt" fill="#ffc107" font-weight="bold" transform="matrix(0.707 0.409 -0.707 0.409 0 0)" xml:space="preserve"><tspan x="8" dy="0">CloudFront</tspan><tspan x="8" dy="1.1em">Function</tspan></text></svg></g></g><g opacity="1"><g id="81e94c1a-5d5b-4631-94a4-c1390ee580ab" transform="translate(0 0)"><svg x="-416" y="592" overflow="visible"><text stroke="#ffffff" stroke-width="4" font-family="Open Sans" y="36.5" font-size="25pt" fill="#f5b720" font-weight="bold" transform="matrix(0.707 0.409 -0.707 0.409 0 0)" xml:space="preserve"><tspan x="8" dy="0">Elastic Load</tspan><tspan x="8" dy="1.1em">Balancing</tspan></text><text font-family="Open Sans" y="36.5" font-size="25pt" fill="#f5b720" font-weight="bold" transform="matrix(0.707 0.409 -0.707 0.409 0 0)" xml:space="preserve"><tspan x="8" dy="0">Elastic Load</tspan><tspan x="8" dy="1.1em">Balancing</tspan></text></svg></g></g><g opacity="1"><g id="22bb8b19-2ce0-41e7-b68d-294566ea329d" transform="translate(0 0)"><svg x="-96" y="389" overflow="visible"><text stroke="#ffffff" stroke-width="4" font-family="Open Sans" y="36.5" font-size="25pt" fill="#ffc107" font-weight="bold" transform="matrix(0.707 0.409 -0.707 0.409 0 0)" xml:space="preserve"><tspan x="8" dy="0">Vulpix App</tspan></text><text font-family="Open Sans" y="36.5" font-size="25pt" fill="#ffc107" font-weight="bold" transform="matrix(0.707 0.409 -0.707 0.409 0 0)" xml:space="preserve"><tspan x="8" dy="0">Vulpix App</tspan></text></svg></g></g><g opacity="1"><g id="e2dddf42-6d6b-4b2a-9c5c-301eb0a8bfe0" transform="translate(0 0)"><svg x="-64" y="37" overflow="visible"><text stroke="#ffffff" stroke-width="4" font-family="Open Sans" y="36.5" font-size="25pt" fill="#ffc107" font-weight="bold" transform="matrix(0.707 0.409 -0.707 0.409 0 0)" xml:space="preserve"><tspan x="8" dy="0">User Upload</tspan><tspan x="8" dy="1.1em">Bucket</tspan></text><text font-family="Open Sans" y="36.5" font-size="25pt" fill="#ffc107" font-weight="bold" transform="matrix(0.707 0.409 -0.707 0.409 0 0)" xml:space="preserve"><tspan x="8" dy="0">User Upload</tspan><tspan x="8" dy="1.1em">Bucket</tspan></text></svg></g></g><g opacity="1"><g id="4c4c9699-007c-41f0-b7a2-53196db8060c" transform="translate(0 0)"><svg x="512" y="370" overflow="visible"><text stroke="#ffffff" stroke-width="4" font-family="Open Sans" y="36.5" font-size="25pt" fill="#ffc107" font-weight="bold" transform="matrix(0.707 0.409 -0.707 0.409 0 0)" xml:space="preserve"><tspan x="8" dy="0">Img Cache</tspan><tspan x="8" dy="1.1em">Bucket</tspan></text><text font-family="Open Sans" y="36.5" font-size="25pt" fill="#ffc107" font-weight="bold" transform="matrix(0.707 0.409 -0.707 0.409 0 0)" xml:space="preserve"><tspan x="8" dy="0">Img Cache</tspan><tspan x="8" dy="1.1em">Bucket</tspan></text></svg></g></g><g opacity="1"><g id="a32553c6-da41-4f3d-ae33-1564fb9dda97" transform="translate(0 0)"><svg x="288" y="185" overflow="visible"><text stroke="#ffffff" stroke-width="4" font-family="Open Sans" y="36.5" font-size="25pt" fill="#ffc107" font-weight="bold" transform="matrix(0.707 0.409 -0.707 0.409 0 0)" xml:space="preserve"><tspan x="8" dy="0">Face Rekog</tspan></text><text font-family="Open Sans" y="36.5" font-size="25pt" fill="#ffc107" font-weight="bold" transform="matrix(0.707 0.409 -0.707 0.409 0 0)" xml:space="preserve"><tspan x="8" dy="0">Face Rekog</tspan></text></svg></g></g></g></g></svg>